<svg xmlns="http://www.w3.org/2000/svg" xmlns:xlink="http://www.w3.org/1999/xlink" x="0" y="0" width="662" height="329" style="
        width:662px;
        height:329px;
        background: #FFF;
        fill: none;
">
        <svg xmlns="http://www.w3.org/2000/svg"/>
        
        <svg xmlns="http://www.w3.org/2000/svg" class="role-diagram-draw-area"><g class="shapes-region" style="stroke: black; fill: none;"><g class="composite-shape" data-amt="diagram/shapes/plot" transform="matrix(1,0,0,1,33,14)"><g><g><g class="test-xgi"><line x1="33" y1="0" x2="33" y2="270" fill="none" stroke="#c3c3c3" stroke-width="0.5"/><line x1="85.96705456430145" y1="0" x2="85.96705456430145" y2="270" fill="none" stroke="#c3c3c3" stroke-width="0.5"/><line x1="138.93410912860287" y1="0" x2="138.93410912860287" y2="270" fill="none" stroke="#c3c3c3" stroke-width="0.5"/><line x1="191.90116369290433" y1="0" x2="191.90116369290433" y2="270" fill="none" stroke="#c3c3c3" stroke-width="0.5"/><line x1="244.8682182572058" y1="0" x2="244.8682182572058" y2="270" fill="none" stroke="#c3c3c3" stroke-width="0.5"/><line x1="297.83527282150726" y1="0" x2="297.83527282150726" y2="270" fill="none" stroke="#c3c3c3" stroke-width="0.5"/><line x1="350.80232738580867" y1="0" x2="350.80232738580867" y2="270" fill="none" stroke="#c3c3c3" stroke-width="0.5"/><line x1="403.76938195011013" y1="0" x2="403.76938195011013" y2="270" fill="none" stroke="#c3c3c3" stroke-width="0.5"/><line x1="456.7364365144116" y1="0" x2="456.7364365144116" y2="270" fill="none" stroke="#c3c3c3" stroke-width="0.5"/><line x1="509.70349107871306" y1="0" x2="509.70349107871306" y2="270" fill="none" stroke="#c3c3c3" stroke-width="0.5"/></g><g class="test-ygi"><line x1="20" y1="263.9628055936809" x2="552" y2="263.9628055936809" fill="none" stroke="#c3c3c3" stroke-width="0.5"/><line x1="20" y1="175.9628055936809" x2="552" y2="175.9628055936809" fill="none" stroke="#c3c3c3" stroke-width="0.5"/><line x1="20" y1="87.96280559368088" x2="552" y2="87.96280559368088" fill="none" stroke="#c3c3c3" stroke-width="0.5"/></g></g><g><rect class="real" x="21" y="1" width="530" height="268" style="fill: transparent; stroke: rgb(50, 50, 50); stroke-opacity: 1;"/><g class="test-plot-expression"><defs><clipPath id="cp2jbqiium1"><rect x="21" y="1" width="530" height="268"/></clipPath></defs><g clip-path="url(#cp2jbqiium1)"><path d=" M20.00,274.70 L20.50,274.28 L21.00,273.87 L21.50,273.46 L22.00,273.04 L22.50,272.63 L23.00,272.22 L23.50,271.80 L24.00,271.39 L24.50,270.98 L25.00,270.56 L25.51,270.15 L26.01,269.74 L26.51,269.32 L27.01,268.91 L27.51,268.50 L28.01,268.09 L28.51,267.67 L29.01,267.26 L29.51,266.85 L30.01,266.43 L30.51,266.02 L31.01,265.61 L31.51,265.19 L32.01,264.78 L32.51,264.37 L33.01,263.95 L33.51,263.54 L34.01,263.13 L34.51,262.71 L35.01,262.30 L35.51,261.89 L36.02,261.47 L36.52,261.06 L37.02,260.65 L37.52,260.23 L38.02,259.82 L38.52,259.41 L39.02,258.99 L39.52,258.58 L40.02,258.17 L40.52,257.75 L41.02,257.34 L41.52,256.93 L42.02,256.51 L42.52,256.10 L43.02,255.69 L43.52,255.27 L44.02,254.86 L44.52,254.45 L45.02,254.04 L45.52,253.62 L46.02,253.21 L46.52,252.80 L47.03,252.38 L47.53,251.97 L48.03,251.56 L48.53,251.14 L49.03,250.73 L49.53,250.32 L50.03,249.90 L50.53,249.49 L51.03,249.08 L51.53,248.66 L52.03,248.25 L52.53,247.84 L53.03,247.42 L53.53,247.01 L54.03,246.60 L54.53,246.18 L55.03,245.77 L55.53,245.36 L56.03,244.94 L56.53,244.53 L57.03,244.12 L57.54,243.70 L58.04,243.29 L58.54,242.88 L59.04,242.46 L59.54,242.05 L60.04,241.64 L60.54,241.22 L61.04,240.81 L61.54,240.40 L62.04,239.99 L62.54,239.57 L63.04,239.16 L63.54,238.75 L64.04,238.33 L64.54,237.92 L65.04,237.51 L65.54,237.09 L66.04,236.68 L66.54,236.27 L67.04,235.85 L67.54,235.44 L68.05,235.03 L68.55,234.61 L69.05,234.20 L69.55,233.79 L70.05,233.37 L70.55,232.96 L71.05,232.55 L71.55,232.13 L72.05,231.72 L72.55,231.31 L73.05,230.89 L73.55,230.48 L74.05,230.07 L74.55,229.65 L75.05,229.24 L75.55,228.83 L76.05,228.41 L76.55,228.00 L77.05,227.59 L77.55,227.18 L78.05,226.76 L78.56,226.35 L79.06,225.94 L79.56,225.52 L80.06,225.11 L80.56,224.70 L81.06,224.28 L81.56,223.87 L82.06,223.46 L82.56,223.04 L83.06,222.63 L83.56,222.22 L84.06,221.80 L84.56,221.39 L85.06,220.98 L85.56,220.56 L86.06,220.15 L86.56,219.74 L87.06,219.32 L87.56,218.91 L88.06,218.50 L88.56,218.08 L89.06,217.67 L89.57,217.26 L90.07,216.84 L90.57,216.43 L91.07,216.02 L91.57,215.60 L92.07,215.19 L92.57,214.78 L93.07,214.36 L93.57,213.95 L94.07,213.54 L94.57,213.13 L95.07,212.71 L95.57,212.30 L96.07,211.89 L96.57,211.47 L97.07,211.06 L97.57,210.65 L98.07,210.23 L98.57,209.82 L99.07,209.41 L99.57,208.99 L100.08,208.58 L100.58,208.17 L101.08,207.75 L101.58,207.34 L102.08,206.93 L102.58,206.51 L103.08,206.10 L103.58,205.69 L104.08,205.27 L104.58,204.86 L105.08,204.45 L105.58,204.03 L106.08,203.62 L106.58,203.21 L107.08,202.79 L107.58,202.38 L108.08,201.97 L108.58,201.55 L109.08,201.14 L109.58,200.73 L110.08,200.31 L110.59,199.90 L111.09,199.49 L111.59,199.08 L112.09,198.66 L112.59,198.25 L113.09,197.84 L113.59,197.42 L114.09,197.01 L114.59,196.60 L115.09,196.18 L115.59,195.77 L116.09,195.36 L116.59,194.94 L117.09,194.53 L117.59,194.12 L118.09,193.70 L118.59,193.29 L119.09,192.88 L119.59,192.46 L120.09,192.05 L120.59,191.64 L121.10,191.22 L121.60,190.81 L122.10,190.40 L122.60,189.98 L123.10,189.57 L123.60,189.16 L124.10,188.74 L124.60,188.33 L125.10,187.92 L125.60,187.50 L126.10,187.09 L126.60,186.68 L127.10,186.26 L127.60,185.85 L128.10,185.44 L128.60,185.03 L129.10,184.61 L129.60,184.20 L130.10,183.79 L130.60,183.37 L131.10,182.96 L131.60,182.55 L132.11,182.13 L132.61,181.72 L133.11,181.31 L133.61,180.89 L134.11,180.48 L134.61,180.07 L135.11,179.65 L135.61,179.24 L136.11,178.83 L136.61,178.41 L137.11,178.00 L137.61,177.59 L138.11,177.17 L138.61,176.76 L139.11,176.35 L139.61,175.93 L140.11,175.52 L140.61,175.11 L141.11,174.69 L141.61,174.28 L142.11,173.87 L142.62,173.45 L143.12,173.04 L143.62,172.63 L144.12,172.22 L144.62,171.80 L145.12,171.39 L145.62,170.98 L146.12,170.56 L146.62,170.15 L147.12,169.74 L147.62,169.32 L148.12,168.91 L148.62,168.50 L149.12,168.08 L149.62,167.67 L150.12,167.26 L150.62,166.84 L151.12,166.43 L151.62,166.02 L152.12,165.60 L152.62,165.19 L153.13,164.78 L153.63,164.36 L154.13,163.95 L154.63,163.54 L155.13,163.12 L155.63,162.71 L156.13,162.30 L156.63,161.88 L157.13,161.47 L157.63,161.06 L158.13,160.64 L158.63,160.23 L159.13,159.82 L159.63,159.40 L160.13,158.99 L160.63,158.58 L161.13,158.17 L161.63,157.75 L162.13,157.34 L162.63,156.93 L163.13,156.51 L163.63,156.10 L164.14,155.69 L164.64,155.27 L165.14,154.86 L165.64,154.45 L166.14,154.03 L166.64,153.62 L167.14,153.21 L167.64,152.79 L168.14,152.38 L168.64,151.97 L169.14,151.55 L169.64,151.14 L170.14,150.73 L170.64,150.31 L171.14,149.90 L171.64,149.49 L172.14,149.07 L172.64,148.66 L173.14,148.25 L173.64,147.83 L174.14,147.42 L174.65,147.01 L175.15,146.59 L175.65,146.18 L176.15,145.77 L176.65,145.35 L177.15,144.94 L177.65,144.53 L178.15,144.12 L178.65,143.70 L179.15,143.29 L179.65,142.88 L180.15,142.46 L180.65,142.05 L181.15,141.64 L181.65,141.22 L182.15,140.81 L182.65,140.40 L183.15,139.98 L183.65,139.57 L184.15,139.16 L184.65,138.74 L185.16,138.33 L185.66,137.92 L186.16,137.50 L186.66,137.09 L187.16,136.68 L187.66,136.26 L188.16,135.85 L188.66,135.44 L189.16,135.02 L189.66,134.61 L190.16,134.20 L190.66,133.78 L191.16,133.37 L191.66,132.96 L192.16,132.54 L192.66,132.13 L193.16,131.72 L193.66,131.31 L194.16,130.89 L194.66,130.48 L195.16,130.07 L195.67,129.65 L196.17,129.24 L196.67,128.83 L197.17,128.41 L197.67,128.00 L198.17,127.59 L198.67,127.17 L199.17,126.76 L199.67,126.35 L200.17,125.93 L200.67,125.52 L201.17,125.11 L201.67,124.69 L202.17,124.28 L202.67,123.87 L203.17,123.45 L203.67,123.04 L204.17,122.63 L204.67,122.21 L205.17,121.80 L205.67,121.39 L206.17,120.97 L206.68,120.56 L207.18,120.15 L207.68,119.73 L208.18,119.32 L208.68,118.91 L209.18,118.49 L209.68,118.08 L210.18,117.67 L210.68,117.26 L211.18,116.84 L211.68,116.43 L212.18,116.02 L212.68,115.60 L213.18,115.19 L213.68,114.78 L214.18,114.36 L214.68,113.95 L215.18,113.54 L215.68,113.12 L216.18,112.71 L216.68,112.30 L217.19,111.88 L217.69,111.47 L218.19,111.06 L218.69,110.64 L219.19,110.23 L219.69,109.82 L220.19,109.40 L220.69,108.99 L221.19,108.58 L221.69,108.16 L222.19,107.75 L222.69,107.34 L223.19,106.92 L223.69,106.51 L224.19,106.10 L224.69,105.68 L225.19,105.27 L225.69,104.86 L226.19,104.44 L226.69,104.03 L227.19,103.62 L227.70,103.21 L228.20,102.79 L228.70,102.38 L229.20,101.97 L229.70,101.55 L230.20,101.14 L230.70,100.73 L231.20,100.31 L231.70,99.90 L232.20,99.49 L232.70,99.07 L233.20,98.66 L233.70,98.25 L234.20,97.83 L234.70,97.42 L235.20,97.01 L235.70,96.59 L236.20,96.18 L236.70,95.77 L237.20,95.35 L237.70,94.94 L238.21,94.53 L238.71,94.11 L239.21,93.70 L239.71,93.29 L240.21,92.87 L240.71,92.46 L241.21,92.05 L241.71,91.63 L242.21,91.22 L242.71,90.81 L243.21,90.40 L243.71,89.98 L244.21,89.57 L244.71,89.16 L245.21,88.74 L245.71,88.33 L246.21,87.92 L246.71,87.50 L247.21,87.09 L247.71,86.68 L248.21,86.26 L248.71,85.85 L249.22,85.44 L249.72,85.02 L250.22,84.61 L250.72,84.20 L251.22,83.78 L251.72,83.37 L252.22,82.96 L252.72,82.54 L253.22,82.13 L253.72,81.72 L254.22,81.30 L254.72,80.89 L255.22,80.48 L255.72,80.06 L256.22,79.65 L256.72,79.24 L257.22,78.82 L257.72,78.41 L258.22,78.00 L258.72,77.58 L259.22,77.17 L259.73,76.76 L260.23,76.35 L260.73,75.93 L261.23,75.52 L261.73,75.11 L262.23,74.69 L262.73,74.28 L263.23,73.87 L263.73,73.45 L264.23,73.04 L264.73,72.63 L265.23,72.21 L265.73,71.80 L266.23,71.39 L266.73,70.97 L267.23,70.56 L267.73,70.15 L268.23,69.73 L268.73,69.32 L269.23,68.91 L269.73,68.49 L270.24,68.08 L270.74,67.67 L271.24,67.25 L271.74,66.84 L272.24,66.43 L272.74,66.01 L273.24,65.60 L273.74,65.19 L274.24,64.77 L274.74,64.36 L275.24,63.95 L275.74,63.53 L276.24,63.12 L276.74,62.71 L277.24,62.30 L277.74,61.88 L278.24,61.47 L278.74,61.06 L279.24,60.64 L279.74,60.23 L280.24,59.82 L280.75,59.40 L281.25,58.99 L281.75,58.58 L282.25,58.16 L282.75,57.75 L283.25,57.34 L283.75,56.92 L284.25,56.51 L284.75,56.10 L285.25,55.68 L285.75,55.27 L286.25,54.86 L286.75,54.44 L287.25,54.03 L287.75,53.62 L288.25,53.20 L288.75,52.79 L289.25,52.38 L289.75,51.96 L290.25,51.55 L290.75,51.14 L291.25,50.72 L291.76,50.31 L292.26,49.90 L292.76,49.49 L293.26,49.07 L293.76,48.66 L294.26,48.25 L294.76,47.83 L295.26,47.42 L295.76,47.01 L296.26,46.59 L296.76,46.18 L297.26,45.77 L297.76,45.35 L298.26,44.94 L298.76,44.53 L299.26,44.11 L299.76,43.70 L300.26,43.29 L300.76,42.87 L301.26,42.46 L301.76,42.05 L302.27,41.63 L302.77,41.22 L303.27,40.81 L303.77,40.39 L304.27,39.98 L304.77,39.57 L305.27,39.15 L305.77,38.74 L306.27,38.33 L306.77,37.91 L307.27,37.50 L307.77,37.09 L308.27,36.67 L308.77,36.26 L309.27,35.85 L309.77,35.44 L310.27,35.02 L310.77,34.61 L311.27,34.20 L311.77,33.78 L312.27,33.37 L312.78,32.96 L313.28,32.54 L313.78,32.13 L314.28,31.72 L314.78,31.30 L315.28,30.89 L315.78,30.48 L316.28,30.06 L316.78,29.65 L317.28,29.24 L317.78,28.82 L318.28,28.41 L318.78,28.00 L319.28,27.58 L319.78,27.17 L320.28,26.76 L320.78,26.34 L321.28,25.93 L321.78,25.52 L322.28,25.10 L322.78,24.69 L323.29,24.28 L323.79,23.86 L324.29,23.45 L324.79,23.04 L325.29,22.62 L325.79,22.21 L326.29,21.80 L326.79,21.39 L327.29,20.97 L327.79,20.56 L328.29,20.15 L328.79,19.73 L329.29,19.32 L329.79,18.91 L330.29,18.49 L330.79,18.08 L331.29,17.67 L331.79,17.25 L332.29,16.84 L332.79,16.43 L333.29,16.01 L333.79,15.60 L334.30,15.19 L334.80,14.77 L335.30,14.36 L335.80,13.95 L336.30,13.53 L336.80,13.12 L337.30,12.71 L337.80,12.29 L338.30,11.88 L338.80,11.47 L339.30,11.05 L339.80,10.64 L340.30,10.23 L340.80,9.81 L341.30,9.40 L341.80,8.99 L342.30,8.58 L342.80,8.16 L343.30,7.75 L343.80,7.34 L344.30,6.92 L344.81,6.51 L345.31,6.10 L345.81,5.68 L346.31,5.27 L346.81,4.86 L347.31,4.44 L347.81,4.03 L348.31,3.62 L348.81,3.20 L349.31,2.79 L349.81,2.38 L350.31,1.96 L350.81,1.55 L351.31,1.14 L351.81,0.72 L352.31,0.31 L352.81,-0.10 L353.31,-0.52 L353.81,-0.93 L354.31,-1.34 L354.81,-1.76 L355.32,-2.17 L355.82,-2.58 L356.32,-3.00 L356.82,-3.41 L357.32,-3.82 L357.82,-4.24 L358.32,-4.65 L358.82,-5.06 L359.32,-5.47 L359.82,-5.89 L360.32,-6.30 L360.82,-6.71 L361.32,-7.13 L361.82,-7.54 L362.32,-7.95 L362.82,-8.37 L363.32,-8.78 L363.82,-9.19 L364.32,-9.61 L364.82,-10.02 L365.32,-10.43 L365.83,-10.85 L366.33,-11.26 L366.83,-11.67 L367.33,-12.09 L367.83,-12.50 L368.33,-12.91 L368.83,-13.33 L369.33,-13.74 L369.83,-14.15 L370.33,-14.57 L370.83,-14.98 L371.33,-15.39 L371.83,-15.81 L372.33,-16.22 L372.83,-16.63 L373.33,-17.05 L373.83,-17.46 L374.33,-17.87 L374.83,-18.29 L375.33,-18.70 L375.83,-19.11 L376.33,-19.52 L376.84,-19.94 L377.34,-20.35 L377.84,-20.76 L378.34,-21.18 L378.84,-21.59 L379.34,-22.00 L379.84,-22.42 L380.34,-22.83 L380.84,-23.24 L381.34,-23.66 L381.84,-24.07 L382.34,-24.48 L382.84,-24.90 L383.34,-25.31 L383.84,-25.72 L384.34,-26.14 L384.84,-26.55 L385.34,-26.96 L385.84,-27.38 L386.34,-27.79 L386.84,-28.20 L387.35,-28.62 L387.85,-29.03 L388.35,-29.44 L388.85,-29.86 L389.35,-30.27 L389.85,-30.68 L390.35,-31.10 L390.85,-31.51 L391.35,-31.92 L391.85,-32.34 L392.35,-32.75 L392.85,-33.16 L393.35,-33.57 L393.85,-33.99 L394.35,-34.40 L394.85,-34.81 L395.35,-35.23 L395.85,-35.64 L396.35,-36.05 L396.85,-36.47 L397.35,-36.88 L397.86,-37.29 L398.36,-37.71 L398.86,-38.12 L399.36,-38.53 L399.86,-38.95 L400.36,-39.36 L400.86,-39.77 L401.36,-40.19 L401.86,-40.60 L402.36,-41.01 L402.86,-41.43 L403.36,-41.84 L403.86,-42.25 L404.36,-42.67 L404.86,-43.08 L405.36,-43.49 L405.86,-43.91 L406.36,-44.32 L406.86,-44.73 L407.36,-45.15 L407.86,-45.56 L408.37,-45.97 L408.87,-46.38 L409.37,-46.80 L409.87,-47.21 L410.37,-47.62 L410.87,-48.04 L411.37,-48.45 L411.87,-48.86 L412.37,-49.28 L412.87,-49.69 L413.37,-50.10 L413.87,-50.52 L414.37,-50.93 L414.87,-51.34 L415.37,-51.76 L415.87,-52.17 L416.37,-52.58 L416.87,-53.00 L417.37,-53.41 L417.87,-53.82 L418.37,-54.24 L418.87,-54.65 L419.38,-55.06 L419.88,-55.48 L420.38,-55.89 L420.88,-56.30 L421.38,-56.72 L421.88,-57.13 L422.38,-57.54 L422.88,-57.96 L423.38,-58.37 L423.88,-58.78 L424.38,-59.20 L424.88,-59.61 L425.38,-60.02 L425.88,-60.43 L426.38,-60.85 L426.88,-61.26 L427.38,-61.67 L427.88,-62.09 L428.38,-62.50 L428.88,-62.91 L429.38,-63.33 L429.89,-63.74 L430.39,-64.15 L430.89,-64.57 L431.39,-64.98 L431.89,-65.39 L432.39,-65.81 L432.89,-66.22 L433.39,-66.63 L433.89,-67.05 L434.39,-67.46 L434.89,-67.87 L435.39,-68.29 L435.89,-68.70 L436.39,-69.11 L436.89,-69.53 L437.39,-69.94 L437.89,-70.35 L438.39,-70.77 L438.89,-71.18 L439.39,-71.59 L439.89,-72.01 L440.40,-72.42 L440.90,-72.83 L441.40,-73.25 L441.90,-73.66 L442.40,-74.07 L442.90,-74.48 L443.40,-74.90 L443.90,-75.31 L444.40,-75.72 L444.90,-76.14 L445.40,-76.55 L445.90,-76.96 L446.40,-77.38 L446.90,-77.79 L447.40,-78.20 L447.90,-78.62 L448.40,-79.03 L448.90,-79.44 L449.40,-79.86 L449.90,-80.27 L450.40,-80.68 L450.90,-81.10 L451.41,-81.51 L451.91,-81.92 L452.41,-82.34 L452.91,-82.75 L453.41,-83.16 L453.91,-83.58 L454.41,-83.99 L454.91,-84.40 L455.41,-84.82 L455.91,-85.23 L456.41,-85.64 L456.91,-86.06 L457.41,-86.47 L457.91,-86.88 L458.41,-87.29 L458.91,-87.71 L459.41,-88.12 L459.91,-88.53 L460.41,-88.95 L460.91,-89.36 L461.41,-89.77 L461.92,-90.19 L462.42,-90.60 L462.92,-91.01 L463.42,-91.43 L463.92,-91.84 L464.42,-92.25 L464.92,-92.67 L465.42,-93.08 L465.92,-93.49 L466.42,-93.91 L466.92,-94.32 L467.42,-94.73 L467.92,-95.15 L468.42,-95.56 L468.92,-95.97 L469.42,-96.39 L469.92,-96.80 L470.42,-97.21 L470.92,-97.63 L471.42,-98.04 L471.92,-98.45 L472.43,-98.87 L472.93,-99.28 L473.43,-99.69 L473.93,-100.11 L474.43,-100.52 L474.93,-100.93 L475.43,-101.34 L475.93,-101.76 L476.43,-102.17 L476.93,-102.58 L477.43,-103.00 L477.93,-103.41 L478.43,-103.82 L478.93,-104.24 L479.43,-104.65 L479.93,-105.06 L480.43,-105.48 L480.93,-105.89 L481.43,-106.30 L481.93,-106.72 L482.43,-107.13 L482.94,-107.54 L483.44,-107.96 L483.94,-108.37 L484.44,-108.78 L484.94,-109.20 L485.44,-109.61 L485.94,-110.02 L486.44,-110.44 L486.94,-110.85 L487.44,-111.26 L487.94,-111.68 L488.44,-112.09 L488.94,-112.50 L489.44,-112.92 L489.94,-113.33 L490.44,-113.74 L490.94,-114.16 L491.44,-114.57 L491.94,-114.98 L492.44,-115.39 L492.94,-115.81 L493.44,-116.22 L493.95,-116.63 L494.45,-117.05 L494.95,-117.46 L495.45,-117.87 L495.95,-118.29 L496.45,-118.70 L496.95,-119.11 L497.45,-119.53 L497.95,-119.94 L498.45,-120.35 L498.95,-120.77 L499.45,-121.18 L499.95,-121.59 L500.45,-122.01 L500.95,-122.42 L501.45,-122.83 L501.95,-123.25 L502.45,-123.66 L502.95,-124.07 L503.45,-124.49 L503.95,-124.90 L504.46,-125.31 L504.96,-125.73 L505.46,-126.14 L505.96,-126.55 L506.46,-126.97 L506.96,-127.38 L507.46,-127.79 L507.96,-128.20 L508.46,-128.62 L508.96,-129.03 L509.46,-129.44 L509.96,-129.86 L510.46,-130.27 L510.96,-130.68 L511.46,-131.10 L511.96,-131.51 L512.46,-131.92 L512.96,-132.34 L513.46,-132.75 L513.96,-133.16 L514.46,-133.58 L514.97,-133.99 L515.47,-134.40 L515.97,-134.82 L516.47,-135.23 L516.97,-135.64 L517.47,-136.06 L517.97,-136.47 L518.47,-136.88 L518.97,-137.30 L519.47,-137.71 L519.97,-138.12 L520.47,-138.54 L520.97,-138.95 L521.47,-139.36 L521.97,-139.78 L522.47,-140.19 L522.97,-140.60 L523.47,-141.02 L523.97,-141.43 L524.47,-141.84 L524.97,-142.25 L525.48,-142.67 L525.98,-143.08 L526.48,-143.49 L526.98,-143.91 L527.48,-144.32 L527.98,-144.73 L528.48,-145.15 L528.98,-145.56 L529.48,-145.97 L529.98,-146.39 L530.48,-146.80 L530.98,-147.21 L531.48,-147.63 L531.98,-148.04 L532.48,-148.45 L532.98,-148.87 L533.48,-149.28 L533.98,-149.69 L534.48,-150.11 L534.98,-150.52 L535.48,-150.93 L535.98,-151.35 L536.49,-151.76 L536.99,-152.17 L537.49,-152.59 L537.99,-153.00 L538.49,-153.41 L538.99,-153.83 L539.49,-154.24 L539.99,-154.65 L540.49,-155.07 L540.99,-155.48 L541.49,-155.89 L541.99,-156.30 L542.49,-156.72 L542.99,-157.13 L543.49,-157.54 L543.99,-157.96 L544.49,-158.37 L544.99,-158.78 L545.49,-159.20 L545.99,-159.61 L546.49,-160.02 L547.00,-160.44 L547.50,-160.85 L548.00,-161.26 L548.50,-161.68 L549.00,-162.09 L549.50,-162.50 L550.00,-162.92 L550.50,-163.33 L551.00,-163.74 L551.50,-164.16 L552.00,-164.57" style="stroke-width: 2px; stroke: rgb(74, 144, 226); stroke-opacity: 0.8;"/></g></g><g class="test-xti" style="font-family: Asana-Math, Asana;"><line x1="20" y1="275" x2="548" y2="275" fill="none" stroke="rgb(50,50,50)" stroke-opacity="1" stroke-width="1"/><line x1="33" y1="275" x2="33" y2="279" fill="none" stroke="rgb(50,50,50)" stroke-opacity="1" stroke-width="1"/><line x1="85.96705456430145" y1="275" x2="85.96705456430145" y2="279" fill="none" stroke="rgb(50,50,50)" stroke-opacity="1" stroke-width="1"/><line x1="138.93410912860287" y1="275" x2="138.93410912860287" y2="279" fill="none" stroke="rgb(50,50,50)" stroke-opacity="1" stroke-width="1"/><line x1="191.90116369290433" y1="275" x2="191.90116369290433" y2="279" fill="none" stroke="rgb(50,50,50)" stroke-opacity="1" stroke-width="1"/><line x1="244.8682182572058" y1="275" x2="244.8682182572058" y2="279" fill="none" stroke="rgb(50,50,50)" stroke-opacity="1" stroke-width="1"/><line x1="297.83527282150726" y1="275" x2="297.83527282150726" y2="279" fill="none" stroke="rgb(50,50,50)" stroke-opacity="1" stroke-width="1"/><line x1="350.80232738580867" y1="275" x2="350.80232738580867" y2="279" fill="none" stroke="rgb(50,50,50)" stroke-opacity="1" stroke-width="1"/><line x1="403.76938195011013" y1="275" x2="403.76938195011013" y2="279" fill="none" stroke="rgb(50,50,50)" stroke-opacity="1" stroke-width="1"/><line x1="456.7364365144116" y1="275" x2="456.7364365144116" y2="279" fill="none" stroke="rgb(50,50,50)" stroke-opacity="1" stroke-width="1"/><line x1="509.70349107871306" y1="275" x2="509.70349107871306" y2="279" fill="none" stroke="rgb(50,50,50)" stroke-opacity="1" stroke-width="1"/></g><g class="test-yti" style="font-family: Asana-Math, Asana;"><line x1="15" y1="4" x2="15" y2="270" fill="none" stroke="rgb(50,50,50)" stroke-opacity="1" stroke-width="1"/><line x1="11" y1="263.9628055936809" x2="15" y2="263.9628055936809" fill="none" stroke="rgb(50,50,50)" stroke-opacity="1" stroke-width="1"/><line x1="11" y1="175.9628055936809" x2="15" y2="175.9628055936809" fill="none" stroke="rgb(50,50,50)" stroke-opacity="1" stroke-width="1"/><line x1="11" y1="87.96280559368088" x2="15" y2="87.96280559368088" fill="none" stroke="rgb(50,50,50)" stroke-opacity="1" stroke-width="1"/></g><g class="test-xtl" style="font-family: &quot;Open Sans&quot;, verdana, arial, sans-serif;"><text text-anchor="middle" font-size="11" dominant-baseline="hanging" stroke="none" fill="rgb(50,50,50)" fill-opacity="1" x="33" y="282">0</text><text text-anchor="middle" font-size="11" dominant-baseline="hanging" stroke="none" fill="rgb(50,50,50)" fill-opacity="1" x="85.96705456430145" y="282">10</text><text text-anchor="middle" font-size="11" dominant-baseline="hanging" stroke="none" fill="rgb(50,50,50)" fill-opacity="1" x="138.93410912860287" y="282">20</text><text text-anchor="middle" font-size="11" dominant-baseline="hanging" stroke="none" fill="rgb(50,50,50)" fill-opacity="1" x="191.90116369290433" y="282">30</text><text text-anchor="middle" font-size="11" dominant-baseline="hanging" stroke="none" fill="rgb(50,50,50)" fill-opacity="1" x="244.8682182572058" y="282">40</text><text text-anchor="middle" font-size="11" dominant-baseline="hanging" stroke="none" fill="rgb(50,50,50)" fill-opacity="1" x="297.83527282150726" y="282">50</text><text text-anchor="middle" font-size="11" dominant-baseline="hanging" stroke="none" fill="rgb(50,50,50)" fill-opacity="1" x="350.80232738580867" y="282">60</text><text text-anchor="middle" font-size="11" dominant-baseline="hanging" stroke="none" fill="rgb(50,50,50)" fill-opacity="1" x="403.76938195011013" y="282">70</text><text text-anchor="middle" font-size="11" dominant-baseline="hanging" stroke="none" fill="rgb(50,50,50)" fill-opacity="1" x="456.7364365144116" y="282">80</text><text text-anchor="middle" font-size="11" dominant-baseline="hanging" stroke="none" fill="rgb(50,50,50)" fill-opacity="1" x="509.70349107871306" y="282">90</text></g><g class="test-ytl" style="font-family: &quot;Open Sans&quot;, verdana, arial, sans-serif;"><text text-anchor="end" dominant-baseline="middle" font-size="11" stroke="none" fill="rgb(50,50,50)" fill-opacity="1" x="7" y="263.9628055936809">0</text><text text-anchor="end" dominant-baseline="middle" font-size="11" stroke="none" fill="rgb(50,50,50)" fill-opacity="1" x="7" y="175.9628055936809">5</text><text text-anchor="end" dominant-baseline="middle" font-size="11" stroke="none" fill="rgb(50,50,50)" fill-opacity="1" x="7" y="87.96280559368088">10</text></g></g></g></g><g/></g><g/><g/><g/></svg>
        <svg xmlns="http://www.w3.org/2000/svg" xmlns:xlink="http://www.w3.org/1999/xlink" width="660" height="327" style="width:660px;height:327px;font-family:Asana-Math, Asana;background:#FFF;"><g><g><g><text x="284" y="301.5" style="white-space:pre;stroke:none;fill:rgb(0,0,0);fill-opacity:1;font-size:15px;font-family:Arial, Helvetica, sans-serif;font-weight:400;font-style:normal;dominant-baseline:text-before-edge;text-decoration:rgb(0, 0, 0);">T</text></g><g><g><g><g><text x="293.16668701171875" y="301.3999938964844" style="white-space:pre;stroke:none;fill:rgb(0,0,0);fill-opacity:1;font-size:9.75px;font-family:Arial, Helvetica, sans-serif;font-weight:400;font-style:normal;dominant-baseline:text-before-edge;text-decoration:rgb(0, 0, 0);">2</text></g></g></g></g><g><text x="298.58331298828125" y="301.5" style="white-space:pre;stroke:none;fill:rgb(0,0,0);fill-opacity:1;font-size:15px;font-family:Arial, Helvetica, sans-serif;font-weight:400;font-style:normal;dominant-baseline:text-before-edge;text-decoration:rgb(0, 0, 0);"> (s)</text></g></g></g><g><g><g><text x="7" y="136.5" style="white-space:pre;stroke:none;fill:rgb(0,0,0);fill-opacity:1;font-size:15px;font-family:Arial, Helvetica, sans-serif;font-weight:400;font-style:normal;dominant-baseline:text-before-edge;text-decoration:rgb(0, 0, 0);">L (m)</text></g></g></g></svg>
</svg>
