<svg xmlns="http://www.w3.org/2000/svg" xmlns:xlink="http://www.w3.org/1999/xlink" x="0" y="0" width="662" height="228" style="
        width:662px;
        height:228px;
        background: #FFF;
        fill: none;
">
        
        
        <svg xmlns="http://www.w3.org/2000/svg" class="role-diagram-draw-area"><g class="shapes-region" style="stroke: black; fill: none;"><g class="composite-shape" data-amt="diagram/shapes/plot" transform="matrix(1,0,0,1,174,14)"><g><g><g class="test-xgi"><line x1="24.45115519534929" y1="0" x2="24.45115519534929" y2="199" fill="none" stroke="#c3c3c3" stroke-width="0.5"/><line x1="74.25115519534928" y1="0" x2="74.25115519534928" y2="199" fill="none" stroke="#c3c3c3" stroke-width="0.5"/><line x1="124.0511551953493" y1="0" x2="124.0511551953493" y2="199" fill="none" stroke="#c3c3c3" stroke-width="0.5"/><line x1="173.8511551953493" y1="0" x2="173.8511551953493" y2="199" fill="none" stroke="#c3c3c3" stroke-width="0.5"/><line x1="223.65115519534928" y1="0" x2="223.65115519534928" y2="199" fill="none" stroke="#c3c3c3" stroke-width="0.5"/><line x1="273.4511551953493" y1="0" x2="273.4511551953493" y2="199" fill="none" stroke="#c3c3c3" stroke-width="0.5"/></g><g class="test-ygi"><line x1="0" y1="185.68024187482197" x2="288" y2="185.68024187482197" fill="none" stroke="#c3c3c3" stroke-width="0.5"/><line x1="0" y1="151.68024187482197" x2="288" y2="151.68024187482197" fill="none" stroke="#c3c3c3" stroke-width="0.5"/><line x1="0" y1="117.68024187482197" x2="288" y2="117.68024187482197" fill="none" stroke="#c3c3c3" stroke-width="0.5"/><line x1="0" y1="83.68024187482197" x2="288" y2="83.68024187482197" fill="none" stroke="#c3c3c3" stroke-width="0.5"/><line x1="0" y1="49.680241874821974" x2="288" y2="49.680241874821974" fill="none" stroke="#c3c3c3" stroke-width="0.5"/><line x1="0" y1="15.680241874822002" x2="288" y2="15.680241874822002" fill="none" stroke="#c3c3c3" stroke-width="0.5"/></g></g><g><g class="test-xti" style="font-family: Asana-Math, Asana;"><line x1="0" y1="185.68024187482197" x2="284" y2="185.68024187482197" fill="none" stroke="rgb(50,50,50)" stroke-opacity="1" stroke-width="1"/><line x1="74.25115519534928" y1="181.68024187482197" x2="74.25115519534928" y2="189.68024187482197" fill="none" stroke="rgb(50,50,50)" stroke-opacity="1" stroke-width="1"/><line x1="124.0511551953493" y1="181.68024187482197" x2="124.0511551953493" y2="189.68024187482197" fill="none" stroke="rgb(50,50,50)" stroke-opacity="1" stroke-width="1"/><line x1="173.8511551953493" y1="181.68024187482197" x2="173.8511551953493" y2="189.68024187482197" fill="none" stroke="rgb(50,50,50)" stroke-opacity="1" stroke-width="1"/><line x1="223.65115519534928" y1="181.68024187482197" x2="223.65115519534928" y2="189.68024187482197" fill="none" stroke="rgb(50,50,50)" stroke-opacity="1" stroke-width="1"/><line x1="273.4511551953493" y1="181.68024187482197" x2="273.4511551953493" y2="189.68024187482197" fill="none" stroke="rgb(50,50,50)" stroke-opacity="1" stroke-width="1"/><path d="M279,182.08024187482198 L287,185.68024187482197 L279,189.28024187482197 Z" stroke="none" stroke-width="1" fill="rgb(50,50,50)" fill-opacity="1"/></g><g class="test-yti" style="font-family: Asana-Math, Asana;"><line x1="24.451155195349287" y1="4" x2="24.451155195349287" y2="199" fill="none" stroke="rgb(50,50,50)" stroke-opacity="1" stroke-width="1"/><line x1="20.451155195349287" y1="151.68024187482197" x2="28.451155195349287" y2="151.68024187482197" fill="none" stroke="rgb(50,50,50)" stroke-opacity="1" stroke-width="1"/><line x1="20.451155195349287" y1="117.68024187482197" x2="28.451155195349287" y2="117.68024187482197" fill="none" stroke="rgb(50,50,50)" stroke-opacity="1" stroke-width="1"/><line x1="20.451155195349287" y1="83.68024187482197" x2="28.451155195349287" y2="83.68024187482197" fill="none" stroke="rgb(50,50,50)" stroke-opacity="1" stroke-width="1"/><line x1="20.451155195349287" y1="49.680241874821974" x2="28.451155195349287" y2="49.680241874821974" fill="none" stroke="rgb(50,50,50)" stroke-opacity="1" stroke-width="1"/><line x1="20.451155195349287" y1="15.680241874822002" x2="28.451155195349287" y2="15.680241874822002" fill="none" stroke="rgb(50,50,50)" stroke-opacity="1" stroke-width="1"/><path d="M20.851155195349286,9 L24.451155195349287,1 L28.05115519534929,9 Z" stroke="none" stroke-width="1" fill="rgb(50,50,50)" fill-opacity="1"/></g><g class="test-plot-expression"><defs><clipPath id="cpbiamt7vab"><rect x="1" y="1" width="286" height="197"/></clipPath></defs><g clip-path="url(#cpbiamt7vab)"><path d=" M0.00,184.04 L0.50,184.11 L1.00,184.17 L1.50,184.24 L2.00,184.30 L2.50,184.36 L3.01,184.42 L3.51,184.48 L4.01,184.53 L4.51,184.59 L5.01,184.64 L5.51,184.70 L6.01,184.75 L6.51,184.80 L7.01,184.85 L7.51,184.89 L8.01,184.94 L8.51,184.98 L9.02,185.03 L9.52,185.07 L10.02,185.11 L10.52,185.15 L11.02,185.19 L11.52,185.22 L12.02,185.26 L12.52,185.29 L13.02,185.32 L13.52,185.35 L14.02,185.38 L14.53,185.41 L15.03,185.44 L15.53,185.46 L16.03,185.49 L16.53,185.51 L17.03,185.53 L17.53,185.55 L18.03,185.57 L18.53,185.58 L19.03,185.60 L19.53,185.61 L20.03,185.63 L20.54,185.64 L21.04,185.65 L21.54,185.66 L22.04,185.66 L22.54,185.67 L23.04,185.67 L23.54,185.68 L24.04,185.68 L24.54,185.68 L25.04,185.68 L25.54,185.68 L26.05,185.67 L26.55,185.67 L27.05,185.66 L27.55,185.65 L28.05,185.64 L28.55,185.63 L29.05,185.62 L29.55,185.61 L30.05,185.59 L30.55,185.58 L31.05,185.56 L31.55,185.54 L32.06,185.52 L32.56,185.50 L33.06,185.48 L33.56,185.45 L34.06,185.43 L34.56,185.40 L35.06,185.37 L35.56,185.34 L36.06,185.31 L36.56,185.28 L37.06,185.24 L37.57,185.21 L38.07,185.17 L38.57,185.13 L39.07,185.09 L39.57,185.05 L40.07,185.01 L40.57,184.97 L41.07,184.92 L41.57,184.88 L42.07,184.83 L42.57,184.78 L43.07,184.73 L43.58,184.68 L44.08,184.62 L44.58,184.57 L45.08,184.51 L45.58,184.46 L46.08,184.40 L46.58,184.34 L47.08,184.28 L47.58,184.21 L48.08,184.15 L48.58,184.08 L49.09,184.02 L49.59,183.95 L50.09,183.88 L50.59,183.81 L51.09,183.73 L51.59,183.66 L52.09,183.59 L52.59,183.51 L53.09,183.43 L53.59,183.35 L54.09,183.27 L54.59,183.19 L55.10,183.11 L55.60,183.02 L56.10,182.93 L56.60,182.85 L57.10,182.76 L57.60,182.67 L58.10,182.58 L58.60,182.48 L59.10,182.39 L59.60,182.29 L60.10,182.19 L60.61,182.10 L61.11,182.00 L61.61,181.89 L62.11,181.79 L62.61,181.69 L63.11,181.58 L63.61,181.48 L64.11,181.37 L64.61,181.26 L65.11,181.15 L65.61,181.03 L66.11,180.92 L66.62,180.81 L67.12,180.69 L67.62,180.57 L68.12,180.45 L68.62,180.33 L69.12,180.21 L69.62,180.09 L70.12,179.96 L70.62,179.84 L71.12,179.71 L71.62,179.58 L72.13,179.45 L72.63,179.32 L73.13,179.18 L73.63,179.05 L74.13,178.91 L74.63,178.78 L75.13,178.64 L75.63,178.50 L76.13,178.36 L76.63,178.21 L77.13,178.07 L77.63,177.92 L78.14,177.78 L78.64,177.63 L79.14,177.48 L79.64,177.33 L80.14,177.18 L80.64,177.02 L81.14,176.87 L81.64,176.71 L82.14,176.55 L82.64,176.40 L83.14,176.23 L83.65,176.07 L84.15,175.91 L84.65,175.74 L85.15,175.58 L85.65,175.41 L86.15,175.24 L86.65,175.07 L87.15,174.90 L87.65,174.73 L88.15,174.55 L88.65,174.38 L89.15,174.20 L89.66,174.02 L90.16,173.84 L90.66,173.66 L91.16,173.48 L91.66,173.30 L92.16,173.11 L92.66,172.92 L93.16,172.74 L93.66,172.55 L94.16,172.36 L94.66,172.16 L95.17,171.97 L95.67,171.77 L96.17,171.58 L96.67,171.38 L97.17,171.18 L97.67,170.98 L98.17,170.78 L98.67,170.58 L99.17,170.37 L99.67,170.17 L100.17,169.96 L100.67,169.75 L101.18,169.54 L101.68,169.33 L102.18,169.12 L102.68,168.90 L103.18,168.69 L103.68,168.47 L104.18,168.25 L104.68,168.03 L105.18,167.81 L105.68,167.59 L106.18,167.36 L106.69,167.14 L107.19,166.91 L107.69,166.68 L108.19,166.45 L108.69,166.22 L109.19,165.99 L109.69,165.76 L110.19,165.52 L110.69,165.29 L111.19,165.05 L111.69,164.81 L112.19,164.57 L112.70,164.33 L113.20,164.09 L113.70,163.84 L114.20,163.60 L114.70,163.35 L115.20,163.10 L115.70,162.85 L116.20,162.60 L116.70,162.35 L117.20,162.09 L117.70,161.84 L118.21,161.58 L118.71,161.32 L119.21,161.06 L119.71,160.80 L120.21,160.54 L120.71,160.27 L121.21,160.01 L121.71,159.74 L122.21,159.48 L122.71,159.21 L123.21,158.94 L123.71,158.66 L124.22,158.39 L124.72,158.12 L125.22,157.84 L125.72,157.56 L126.22,157.28 L126.72,157.00 L127.22,156.72 L127.72,156.44 L128.22,156.15 L128.72,155.87 L129.22,155.58 L129.73,155.29 L130.23,155.00 L130.73,154.71 L131.23,154.42 L131.73,154.13 L132.23,153.83 L132.73,153.53 L133.23,153.24 L133.73,152.94 L134.23,152.63 L134.73,152.33 L135.23,152.03 L135.74,151.72 L136.24,151.42 L136.74,151.11 L137.24,150.80 L137.74,150.49 L138.24,150.18 L138.74,149.87 L139.24,149.55 L139.74,149.23 L140.24,148.92 L140.74,148.60 L141.25,148.28 L141.75,147.96 L142.25,147.63 L142.75,147.31 L143.25,146.98 L143.75,146.66 L144.25,146.33 L144.75,146.00 L145.25,145.67 L145.75,145.34 L146.25,145.00 L146.75,144.67 L147.26,144.33 L147.76,143.99 L148.26,143.65 L148.76,143.31 L149.26,142.97 L149.76,142.63 L150.26,142.28 L150.76,141.94 L151.26,141.59 L151.76,141.24 L152.26,140.89 L152.77,140.54 L153.27,140.18 L153.77,139.83 L154.27,139.47 L154.77,139.12 L155.27,138.76 L155.77,138.40 L156.27,138.04 L156.77,137.67 L157.27,137.31 L157.77,136.94 L158.27,136.58 L158.78,136.21 L159.28,135.84 L159.78,135.47 L160.28,135.10 L160.78,134.72 L161.28,134.35 L161.78,133.97 L162.28,133.59 L162.78,133.21 L163.28,132.83 L163.78,132.45 L164.29,132.07 L164.79,131.68 L165.29,131.30 L165.79,130.91 L166.29,130.52 L166.79,130.13 L167.29,129.74 L167.79,129.34 L168.29,128.95 L168.79,128.55 L169.29,128.16 L169.79,127.76 L170.30,127.36 L170.80,126.96 L171.30,126.55 L171.80,126.15 L172.30,125.75 L172.80,125.34 L173.30,124.93 L173.80,124.52 L174.30,124.11 L174.80,123.70 L175.30,123.28 L175.81,122.87 L176.31,122.45 L176.81,122.03 L177.31,121.62 L177.81,121.19 L178.31,120.77 L178.81,120.35 L179.31,119.93 L179.81,119.50 L180.31,119.07 L180.81,118.64 L181.31,118.21 L181.82,117.78 L182.32,117.35 L182.82,116.91 L183.32,116.48 L183.82,116.04 L184.32,115.60 L184.82,115.16 L185.32,114.72 L185.82,114.28 L186.32,113.84 L186.82,113.39 L187.33,112.94 L187.83,112.50 L188.33,112.05 L188.83,111.60 L189.33,111.14 L189.83,110.69 L190.33,110.23 L190.83,109.78 L191.33,109.32 L191.83,108.86 L192.33,108.40 L192.83,107.94 L193.34,107.48 L193.84,107.01 L194.34,106.55 L194.84,106.08 L195.34,105.61 L195.84,105.14 L196.34,104.67 L196.84,104.20 L197.34,103.72 L197.84,103.25 L198.34,102.77 L198.85,102.29 L199.35,101.81 L199.85,101.33 L200.35,100.85 L200.85,100.36 L201.35,99.88 L201.85,99.39 L202.35,98.90 L202.85,98.41 L203.35,97.92 L203.85,97.43 L204.35,96.94 L204.86,96.44 L205.36,95.95 L205.86,95.45 L206.36,94.95 L206.86,94.45 L207.36,93.95 L207.86,93.45 L208.36,92.94 L208.86,92.44 L209.36,91.93 L209.86,91.42 L210.37,90.91 L210.87,90.40 L211.37,89.89 L211.87,89.37 L212.37,88.86 L212.87,88.34 L213.37,87.82 L213.87,87.30 L214.37,86.78 L214.87,86.26 L215.37,85.73 L215.87,85.21 L216.38,84.68 L216.88,84.15 L217.38,83.63 L217.88,83.09 L218.38,82.56 L218.88,82.03 L219.38,81.49 L219.88,80.96 L220.38,80.42 L220.88,79.88 L221.38,79.34 L221.89,78.80 L222.39,78.26 L222.89,77.71 L223.39,77.17 L223.89,76.62 L224.39,76.07 L224.89,75.52 L225.39,74.97 L225.89,74.42 L226.39,73.86 L226.89,73.31 L227.39,72.75 L227.90,72.19 L228.40,71.63 L228.90,71.07 L229.40,70.51 L229.90,69.95 L230.40,69.38 L230.90,68.82 L231.40,68.25 L231.90,67.68 L232.40,67.11 L232.90,66.54 L233.41,65.96 L233.91,65.39 L234.41,64.81 L234.91,64.24 L235.41,63.66 L235.91,63.08 L236.41,62.50 L236.91,61.91 L237.41,61.33 L237.91,60.74 L238.41,60.16 L238.91,59.57 L239.42,58.98 L239.92,58.39 L240.42,57.79 L240.92,57.20 L241.42,56.61 L241.92,56.01 L242.42,55.41 L242.92,54.81 L243.42,54.21 L243.92,53.61 L244.42,53.01 L244.93,52.40 L245.43,51.79 L245.93,51.19 L246.43,50.58 L246.93,49.97 L247.43,49.36 L247.93,48.74 L248.43,48.13 L248.93,47.51 L249.43,46.89 L249.93,46.28 L250.43,45.66 L250.94,45.03 L251.44,44.41 L251.94,43.79 L252.44,43.16 L252.94,42.53 L253.44,41.91 L253.94,41.28 L254.44,40.65 L254.94,40.01 L255.44,39.38 L255.94,38.74 L256.45,38.11 L256.95,37.47 L257.45,36.83 L257.95,36.19 L258.45,35.55 L258.95,34.91 L259.45,34.26 L259.95,33.61 L260.45,32.97 L260.95,32.32 L261.45,31.67 L261.95,31.02 L262.46,30.36 L262.96,29.71 L263.46,29.05 L263.96,28.40 L264.46,27.74 L264.96,27.08 L265.46,26.42 L265.96,25.75 L266.46,25.09 L266.96,24.42 L267.46,23.76 L267.97,23.09 L268.47,22.42 L268.97,21.75 L269.47,21.08 L269.97,20.40 L270.47,19.73 L270.97,19.05 L271.47,18.37 L271.97,17.69 L272.47,17.01 L272.97,16.33 L273.47,15.65 L273.98,14.96 L274.48,14.28 L274.98,13.59 L275.48,12.90 L275.98,12.21 L276.48,11.52 L276.98,10.83 L277.48,10.13 L277.98,9.44 L278.48,8.74 L278.98,8.04 L279.49,7.34 L279.99,6.64 L280.49,5.94 L280.99,5.23 L281.49,4.53 L281.99,3.82 L282.49,3.11 L282.99,2.40 L283.49,1.69 L283.99,0.98 L284.49,0.27 L284.99,-0.45 L285.50,-1.16 L286.00,-1.88 L286.50,-2.60 L287.00,-3.32 L287.50,-4.04 L288.00,-4.77" style="stroke-width: 2px; stroke: rgb(74, 144, 226); stroke-opacity: 0.8;"/></g></g><g class="test-xtl" style="font-family: &quot;Open Sans&quot;, verdana, arial, sans-serif;"><text text-anchor="middle" font-size="11" dominant-baseline="hanging" stroke="none" fill="rgb(50,50,50)" fill-opacity="1" x="74.25115519534928" y="192.68024187482197">2</text><text text-anchor="middle" font-size="11" dominant-baseline="hanging" stroke="none" fill="rgb(50,50,50)" fill-opacity="1" x="124.0511551953493" y="192.68024187482197">4</text><text text-anchor="middle" font-size="11" dominant-baseline="hanging" stroke="none" fill="rgb(50,50,50)" fill-opacity="1" x="173.8511551953493" y="192.68024187482197">6</text><text text-anchor="middle" font-size="11" dominant-baseline="hanging" stroke="none" fill="rgb(50,50,50)" fill-opacity="1" x="223.65115519534928" y="192.68024187482197">8</text><text text-anchor="middle" font-size="11" dominant-baseline="hanging" stroke="none" fill="rgb(50,50,50)" fill-opacity="1" x="273.4511551953493" y="192.68024187482197">10</text><text text-anchor="middle" font-size="11" dominant-baseline="hanging" stroke="none" fill="rgb(50,50,50)" fill-opacity="1" x="16.45115519534929" y="190.68024187482197">0</text></g><g class="test-ytl" style="font-family: &quot;Open Sans&quot;, verdana, arial, sans-serif;"><text text-anchor="end" dominant-baseline="middle" font-size="11" stroke="none" fill="rgb(50,50,50)" fill-opacity="1" x="16.451155195349287" y="151.68024187482197">20</text><text text-anchor="end" dominant-baseline="middle" font-size="11" stroke="none" fill="rgb(50,50,50)" fill-opacity="1" x="16.451155195349287" y="117.68024187482197">40</text><text text-anchor="end" dominant-baseline="middle" font-size="11" stroke="none" fill="rgb(50,50,50)" fill-opacity="1" x="16.451155195349287" y="83.68024187482197">60</text><text text-anchor="end" dominant-baseline="middle" font-size="11" stroke="none" fill="rgb(50,50,50)" fill-opacity="1" x="16.451155195349287" y="49.680241874821974">80</text><text text-anchor="end" dominant-baseline="middle" font-size="11" stroke="none" fill="rgb(50,50,50)" fill-opacity="1" x="16.451155195349287" y="15.680241874822002">100</text></g><rect class="real" x="1" y="1" width="286" height="197" style="fill: transparent; stroke: none;"/></g></g></g><g/></g><g/><g/><g/></svg>
        <svg xmlns="http://www.w3.org/2000/svg" xmlns:xlink="http://www.w3.org/1999/xlink" width="660" height="226" style="width:660px;height:226px;font-family:Asana-Math, Asana;background:#FFF;"></svg>
</svg>
