<svg xmlns="http://www.w3.org/2000/svg" xmlns:xlink="http://www.w3.org/1999/xlink" x="0" y="0" width="579" height="298" style="
        width:579px;
        height:298px;
        background: #FFF;
        fill: none;
">
        <svg xmlns="http://www.w3.org/2000/svg"/>
        
        <svg xmlns="http://www.w3.org/2000/svg" class="role-diagram-draw-area"><g class="shapes-region" style="stroke: black; fill: none;"><g class="composite-shape" data-amt="diagram/shapes/plot" transform="matrix(1,0,0,1,29,55.5)"><g><g><g class="test-xgi"><line x1="5.000000000000005" y1="0" x2="5.000000000000005" y2="217" fill="none" stroke="#c3c3c3" stroke-width="0.5"/><line x1="70" y1="0" x2="70" y2="217" fill="none" stroke="#c3c3c3" stroke-width="0.5"/><line x1="135" y1="0" x2="135" y2="217" fill="none" stroke="#c3c3c3" stroke-width="0.5"/><line x1="200" y1="0" x2="200" y2="217" fill="none" stroke="#c3c3c3" stroke-width="0.5"/><line x1="265" y1="0" x2="265" y2="217" fill="none" stroke="#c3c3c3" stroke-width="0.5"/><line x1="330" y1="0" x2="330" y2="217" fill="none" stroke="#c3c3c3" stroke-width="0.5"/><line x1="395" y1="0" x2="395" y2="217" fill="none" stroke="#c3c3c3" stroke-width="0.5"/></g><g class="test-ygi"><line x1="0" y1="182" x2="397" y2="182" fill="none" stroke="#c3c3c3" stroke-width="0.5"/><line x1="0" y1="117" x2="397" y2="117" fill="none" stroke="#c3c3c3" stroke-width="0.5"/><line x1="0" y1="52" x2="397" y2="52" fill="none" stroke="#c3c3c3" stroke-width="0.5"/></g></g><g><g class="test-xti" style="font-family: Asana-Math, Asana;"><line x1="0" y1="117" x2="393" y2="117" fill="none" stroke="rgb(50,50,50)" stroke-opacity="1" stroke-width="1"/><line x1="5.000000000000005" y1="113" x2="5.000000000000005" y2="121" fill="none" stroke="rgb(50,50,50)" stroke-opacity="1" stroke-width="1"/><line x1="70" y1="113" x2="70" y2="121" fill="none" stroke="rgb(50,50,50)" stroke-opacity="1" stroke-width="1"/><line x1="135" y1="113" x2="135" y2="121" fill="none" stroke="rgb(50,50,50)" stroke-opacity="1" stroke-width="1"/><line x1="265" y1="113" x2="265" y2="121" fill="none" stroke="rgb(50,50,50)" stroke-opacity="1" stroke-width="1"/><line x1="330" y1="113" x2="330" y2="121" fill="none" stroke="rgb(50,50,50)" stroke-opacity="1" stroke-width="1"/><line x1="395" y1="113" x2="395" y2="121" fill="none" stroke="rgb(50,50,50)" stroke-opacity="1" stroke-width="1"/><path d="M388,113.4 L396,117 L388,120.6 Z" stroke="none" stroke-width="1" fill="rgb(50,50,50)" fill-opacity="1"/></g><g class="test-yti" style="font-family: Asana-Math, Asana;"><line x1="200" y1="4" x2="200" y2="217" fill="none" stroke="rgb(50,50,50)" stroke-opacity="1" stroke-width="1"/><line x1="196" y1="182" x2="204" y2="182" fill="none" stroke="rgb(50,50,50)" stroke-opacity="1" stroke-width="1"/><line x1="196" y1="52" x2="204" y2="52" fill="none" stroke="rgb(50,50,50)" stroke-opacity="1" stroke-width="1"/><path d="M196.4,9 L200,1 L203.6,9 Z" stroke="none" stroke-width="1" fill="rgb(50,50,50)" fill-opacity="1"/></g><g class="test-plot-expression"><defs><clipPath id="cpgam2vf008"><rect x="1" y="1" width="395" height="215"/></clipPath></defs><g clip-path="url(#cpgam2vf008)"><path d=" M0.00,117.75 L0.50,117.75 L1.00,117.75 L1.50,117.75 L2.00,117.75 L2.50,117.76 L3.00,117.76 L3.50,117.76 L4.01,117.76 L4.51,117.76 L5.01,117.76 L5.51,117.77 L6.01,117.77 L6.51,117.77 L7.01,117.77 L7.51,117.77 L8.01,117.78 L8.51,117.78 L9.01,117.78 L9.51,117.78 L10.01,117.78 L10.51,117.78 L11.01,117.79 L11.51,117.79 L12.02,117.79 L12.52,117.79 L13.02,117.79 L13.52,117.80 L14.02,117.80 L14.52,117.80 L15.02,117.80 L15.52,117.80 L16.02,117.80 L16.52,117.81 L17.02,117.81 L17.52,117.81 L18.02,117.81 L18.52,117.81 L19.02,117.82 L19.52,117.82 L20.03,117.82 L20.53,117.82 L21.03,117.82 L21.53,117.83 L22.03,117.83 L22.53,117.83 L23.03,117.83 L23.53,117.83 L24.03,117.84 L24.53,117.84 L25.03,117.84 L25.53,117.84 L26.03,117.85 L26.53,117.85 L27.03,117.85 L27.53,117.85 L28.04,117.85 L28.54,117.86 L29.04,117.86 L29.54,117.86 L30.04,117.86 L30.54,117.86 L31.04,117.87 L31.54,117.87 L32.04,117.87 L32.54,117.87 L33.04,117.88 L33.54,117.88 L34.04,117.88 L34.54,117.88 L35.04,117.89 L35.54,117.89 L36.05,117.89 L36.55,117.89 L37.05,117.89 L37.55,117.90 L38.05,117.90 L38.55,117.90 L39.05,117.90 L39.55,117.91 L40.05,117.91 L40.55,117.91 L41.05,117.91 L41.55,117.92 L42.05,117.92 L42.55,117.92 L43.05,117.92 L43.55,117.93 L44.06,117.93 L44.56,117.93 L45.06,117.93 L45.56,117.94 L46.06,117.94 L46.56,117.94 L47.06,117.94 L47.56,117.95 L48.06,117.95 L48.56,117.95 L49.06,117.96 L49.56,117.96 L50.06,117.96 L50.56,117.96 L51.06,117.97 L51.56,117.97 L52.07,117.97 L52.57,117.97 L53.07,117.98 L53.57,117.98 L54.07,117.98 L54.57,117.99 L55.07,117.99 L55.57,117.99 L56.07,117.99 L56.57,118.00 L57.07,118.00 L57.57,118.00 L58.07,118.01 L58.57,118.01 L59.07,118.01 L59.58,118.02 L60.08,118.02 L60.58,118.02 L61.08,118.02 L61.58,118.03 L62.08,118.03 L62.58,118.03 L63.08,118.04 L63.58,118.04 L64.08,118.04 L64.58,118.05 L65.08,118.05 L65.58,118.05 L66.08,118.06 L66.58,118.06 L67.08,118.06 L67.59,118.07 L68.09,118.07 L68.59,118.07 L69.09,118.08 L69.59,118.08 L70.09,118.08 L70.59,118.09 L71.09,118.09 L71.59,118.09 L72.09,118.10 L72.59,118.10 L73.09,118.11 L73.59,118.11 L74.09,118.11 L74.59,118.12 L75.09,118.12 L75.60,118.12 L76.10,118.13 L76.60,118.13 L77.10,118.13 L77.60,118.14 L78.10,118.14 L78.60,118.15 L79.10,118.15 L79.60,118.15 L80.10,118.16 L80.60,118.16 L81.10,118.17 L81.60,118.17 L82.10,118.17 L82.60,118.18 L83.10,118.18 L83.61,118.19 L84.11,118.19 L84.61,118.20 L85.11,118.20 L85.61,118.20 L86.11,118.21 L86.61,118.21 L87.11,118.22 L87.61,118.22 L88.11,118.23 L88.61,118.23 L89.11,118.23 L89.61,118.24 L90.11,118.24 L90.61,118.25 L91.11,118.25 L91.62,118.26 L92.12,118.26 L92.62,118.27 L93.12,118.27 L93.62,118.28 L94.12,118.28 L94.62,118.29 L95.12,118.29 L95.62,118.30 L96.12,118.30 L96.62,118.31 L97.12,118.31 L97.62,118.32 L98.12,118.32 L98.62,118.33 L99.12,118.33 L99.63,118.34 L100.13,118.34 L100.63,118.35 L101.13,118.35 L101.63,118.36 L102.13,118.36 L102.63,118.37 L103.13,118.38 L103.63,118.38 L104.13,118.39 L104.63,118.39 L105.13,118.40 L105.63,118.40 L106.13,118.41 L106.63,118.42 L107.13,118.42 L107.64,118.43 L108.14,118.43 L108.64,118.44 L109.14,118.45 L109.64,118.45 L110.14,118.46 L110.64,118.46 L111.14,118.47 L111.64,118.48 L112.14,118.48 L112.64,118.49 L113.14,118.50 L113.64,118.50 L114.14,118.51 L114.64,118.52 L115.15,118.52 L115.65,118.53 L116.15,118.54 L116.65,118.55 L117.15,118.55 L117.65,118.56 L118.15,118.57 L118.65,118.57 L119.15,118.58 L119.65,118.59 L120.15,118.60 L120.65,118.60 L121.15,118.61 L121.65,118.62 L122.15,118.63 L122.65,118.64 L123.16,118.64 L123.66,118.65 L124.16,118.66 L124.66,118.67 L125.16,118.68 L125.66,118.68 L126.16,118.69 L126.66,118.70 L127.16,118.71 L127.66,118.72 L128.16,118.73 L128.66,118.74 L129.16,118.75 L129.66,118.75 L130.16,118.76 L130.66,118.77 L131.17,118.78 L131.67,118.79 L132.17,118.80 L132.67,118.81 L133.17,118.82 L133.67,118.83 L134.17,118.84 L134.67,118.85 L135.17,118.86 L135.67,118.87 L136.17,118.88 L136.67,118.89 L137.17,118.90 L137.67,118.91 L138.17,118.92 L138.67,118.94 L139.18,118.95 L139.68,118.96 L140.18,118.97 L140.68,118.98 L141.18,118.99 L141.68,119.00 L142.18,119.02 L142.68,119.03 L143.18,119.04 L143.68,119.05 L144.18,119.07 L144.68,119.08 L145.18,119.09 L145.68,119.10 L146.18,119.12 L146.68,119.13 L147.19,119.14 L147.69,119.16 L148.19,119.17 L148.69,119.19 L149.19,119.20 L149.69,119.21 L150.19,119.23 L150.69,119.24 L151.19,119.26 L151.69,119.27 L152.19,119.29 L152.69,119.31 L153.19,119.32 L153.69,119.34 L154.19,119.35 L154.69,119.37 L155.20,119.39 L155.70,119.40 L156.20,119.42 L156.70,119.44 L157.20,119.46 L157.70,119.47 L158.20,119.49 L158.70,119.51 L159.20,119.53 L159.70,119.55 L160.20,119.57 L160.70,119.59 L161.20,119.61 L161.70,119.63 L162.20,119.65 L162.70,119.67 L163.21,119.69 L163.71,119.71 L164.21,119.73 L164.71,119.76 L165.21,119.78 L165.71,119.80 L166.21,119.83 L166.71,119.85 L167.21,119.87 L167.71,119.90 L168.21,119.92 L168.71,119.95 L169.21,119.98 L169.71,120.00 L170.21,120.03 L170.72,120.06 L171.22,120.08 L171.72,120.11 L172.22,120.14 L172.72,120.17 L173.22,120.20 L173.72,120.23 L174.22,120.26 L174.72,120.30 L175.22,120.33 L175.72,120.36 L176.22,120.40 L176.72,120.43 L177.22,120.46 L177.72,120.50 L178.22,120.54 L178.73,120.57 L179.23,120.61 L179.73,120.65 L180.23,120.69 L180.73,120.73 L181.23,120.77 L181.73,120.82 L182.23,120.86 L182.73,120.91 L183.23,120.95 L183.73,121.00 L184.23,121.05 L184.73,121.10 L185.23,121.15 L185.73,121.20 L186.23,121.25 L186.74,121.30 L187.24,121.36 L187.74,121.42 L188.24,121.48 L188.74,121.54 L189.24,121.60 L189.74,121.66 L190.24,121.73 L190.74,121.79 L191.24,121.86 L191.74,121.93 L192.24,122.01 L192.74,122.08 L193.24,122.16 L193.74,122.24 L194.24,122.32 L194.75,122.41 L195.25,122.50 L195.75,122.59 L196.25,122.68 L196.75,122.78 L197.25,122.88 L197.75,122.98 L198.25,123.09 L198.75,123.20 L199.25,123.32 L199.75,123.44 L200.25,123.56 L200.75,123.69 L201.25,123.83 L201.75,123.97 L202.25,124.12 L202.76,124.27 L203.26,124.43 L203.76,124.60 L204.26,124.77 L204.76,124.96 L205.26,125.15 L205.76,125.35 L206.26,125.56 L206.76,125.78 L207.26,126.02 L207.76,126.27 L208.26,126.53 L208.76,126.80 L209.26,127.10 L209.76,127.41 L210.26,127.74 L210.77,128.09 L211.27,128.47 L211.77,128.87 L212.27,129.31 L212.77,129.77 L213.27,130.27 L213.77,130.82 L214.27,131.41 L214.77,132.05 L215.27,132.75 L215.77,133.52 L216.27,134.37 L216.77,135.32 L217.27,136.37 L217.77,137.55 L218.27,138.88 L218.78,140.39 L219.28,142.13 L219.78,144.16 L220.28,146.53 L220.78,149.36 L221.28,152.80 L221.78,157.04 L222.28,162.43 L222.78,169.49 L223.28,179.16 L223.78,193.19 L224.28,215.40 L224.78,255.88 L225.28,352.95 L225.78,434.00 L226.28,434.00 M226.28,-217.00 L226.28,-217.00 L226.79,-217.00 M226.79,-217.00 L226.79,-98.12 L227.29,-14.39 L227.79,22.42 L228.29,43.12 L228.79,56.39 L229.29,65.61 L229.79,72.40 L230.29,77.61 L230.79,81.72 L231.29,85.06 L231.79,87.82 L232.29,90.14 L232.79,92.12 L233.29,93.83 L233.79,95.32 L234.30,96.63 L234.80,97.79 L235.30,98.82 L235.80,99.75 L236.30,100.59 L236.80,101.35 L237.30,102.04 L237.80,102.68 L238.30,103.26 L238.80,103.80 L239.30,104.29 L239.80,104.76 L240.30,105.18 L240.80,105.58 L241.30,105.96 L241.80,106.31 L242.31,106.64 L242.81,106.94 L243.31,107.23 L243.81,107.51 L244.31,107.77 L244.81,108.01 L245.31,108.25 L245.81,108.47 L246.31,108.68 L246.81,108.88 L247.31,109.07 L247.81,109.25 L248.31,109.43 L248.81,109.59 L249.31,109.75 L249.81,109.90 L250.32,110.05 L250.82,110.19 L251.32,110.32 L251.82,110.45 L252.32,110.58 L252.82,110.70 L253.32,110.81 L253.82,110.93 L254.32,111.03 L254.82,111.14 L255.32,111.24 L255.82,111.33 L256.32,111.43 L256.82,111.52 L257.32,111.60 L257.82,111.69 L258.33,111.77 L258.83,111.85 L259.33,111.93 L259.83,112.00 L260.33,112.08 L260.83,112.15 L261.33,112.22 L261.83,112.28 L262.33,112.35 L262.83,112.41 L263.33,112.47 L263.83,112.53 L264.33,112.59 L264.83,112.65 L265.33,112.70 L265.83,112.76 L266.34,112.81 L266.84,112.86 L267.34,112.91 L267.84,112.96 L268.34,113.01 L268.84,113.05 L269.34,113.10 L269.84,113.15 L270.34,113.19 L270.84,113.23 L271.34,113.27 L271.84,113.31 L272.34,113.35 L272.84,113.39 L273.34,113.43 L273.84,113.47 L274.35,113.50 L274.85,113.54 L275.35,113.58 L275.85,113.61 L276.35,113.64 L276.85,113.68 L277.35,113.71 L277.85,113.74 L278.35,113.77 L278.85,113.80 L279.35,113.83 L279.85,113.86 L280.35,113.89 L280.85,113.92 L281.35,113.95 L281.85,113.97 L282.36,114.00 L282.86,114.03 L283.36,114.05 L283.86,114.08 L284.36,114.10 L284.86,114.13 L285.36,114.15 L285.86,114.18 L286.36,114.20 L286.86,114.22 L287.36,114.25 L287.86,114.27 L288.36,114.29 L288.86,114.31 L289.36,114.33 L289.87,114.35 L290.37,114.37 L290.87,114.39 L291.37,114.41 L291.87,114.43 L292.37,114.45 L292.87,114.47 L293.37,114.49 L293.87,114.51 L294.37,114.53 L294.87,114.55 L295.37,114.56 L295.87,114.58 L296.37,114.60 L296.87,114.62 L297.37,114.63 L297.88,114.65 L298.38,114.66 L298.88,114.68 L299.38,114.70 L299.88,114.71 L300.38,114.73 L300.88,114.74 L301.38,114.76 L301.88,114.77 L302.38,114.79 L302.88,114.80 L303.38,114.82 L303.88,114.83 L304.38,114.84 L304.88,114.86 L305.38,114.87 L305.89,114.88 L306.39,114.90 L306.89,114.91 L307.39,114.92 L307.89,114.94 L308.39,114.95 L308.89,114.96 L309.39,114.97 L309.89,114.99 L310.39,115.00 L310.89,115.01 L311.39,115.02 L311.89,115.03 L312.39,115.04 L312.89,115.06 L313.39,115.07 L313.90,115.08 L314.40,115.09 L314.90,115.10 L315.40,115.11 L315.90,115.12 L316.40,115.13 L316.90,115.14 L317.40,115.15 L317.90,115.16 L318.40,115.17 L318.90,115.18 L319.40,115.19 L319.90,115.20 L320.40,115.21 L320.90,115.22 L321.40,115.23 L321.91,115.24 L322.41,115.25 L322.91,115.26 L323.41,115.27 L323.91,115.27 L324.41,115.28 L324.91,115.29 L325.41,115.30 L325.91,115.31 L326.41,115.32 L326.91,115.33 L327.41,115.33 L327.91,115.34 L328.41,115.35 L328.91,115.36 L329.41,115.37 L329.92,115.37 L330.42,115.38 L330.92,115.39 L331.42,115.40 L331.92,115.40 L332.42,115.41 L332.92,115.42 L333.42,115.43 L333.92,115.43 L334.42,115.44 L334.92,115.45 L335.42,115.46 L335.92,115.46 L336.42,115.47 L336.92,115.48 L337.42,115.48 L337.93,115.49 L338.43,115.50 L338.93,115.50 L339.43,115.51 L339.93,115.52 L340.43,115.52 L340.93,115.53 L341.43,115.54 L341.93,115.54 L342.43,115.55 L342.93,115.55 L343.43,115.56 L343.93,115.57 L344.43,115.57 L344.93,115.58 L345.44,115.59 L345.94,115.59 L346.44,115.60 L346.94,115.60 L347.44,115.61 L347.94,115.61 L348.44,115.62 L348.94,115.63 L349.44,115.63 L349.94,115.64 L350.44,115.64 L350.94,115.65 L351.44,115.65 L351.94,115.66 L352.44,115.66 L352.94,115.67 L353.45,115.67 L353.95,115.68 L354.45,115.68 L354.95,115.69 L355.45,115.69 L355.95,115.70 L356.45,115.70 L356.95,115.71 L357.45,115.71 L357.95,115.72 L358.45,115.72 L358.95,115.73 L359.45,115.73 L359.95,115.74 L360.45,115.74 L360.95,115.75 L361.46,115.75 L361.96,115.76 L362.46,115.76 L362.96,115.77 L363.46,115.77 L363.96,115.77 L364.46,115.78 L364.96,115.78 L365.46,115.79 L365.96,115.79 L366.46,115.80 L366.96,115.80 L367.46,115.81 L367.96,115.81 L368.46,115.81 L368.96,115.82 L369.47,115.82 L369.97,115.83 L370.47,115.83 L370.97,115.83 L371.47,115.84 L371.97,115.84 L372.47,115.85 L372.97,115.85 L373.47,115.85 L373.97,115.86 L374.47,115.86 L374.97,115.87 L375.47,115.87 L375.97,115.87 L376.47,115.88 L376.97,115.88 L377.48,115.88 L377.98,115.89 L378.48,115.89 L378.98,115.90 L379.48,115.90 L379.98,115.90 L380.48,115.91 L380.98,115.91 L381.48,115.91 L381.98,115.92 L382.48,115.92 L382.98,115.92 L383.48,115.93 L383.98,115.93 L384.48,115.93 L384.98,115.94 L385.49,115.94 L385.99,115.94 L386.49,115.95 L386.99,115.95 L387.49,115.95 L387.99,115.96 L388.49,115.96 L388.99,115.96 L389.49,115.97 L389.99,115.97 L390.49,115.97 L390.99,115.98 L391.49,115.98 L391.99,115.98 L392.49,115.98 L392.99,115.99 L393.50,115.99 L394.00,115.99 L394.50,116.00 L395.00,116.00 L395.50,116.00 L396.00,116.01 L396.50,116.01 L397.00,116.01" style="stroke-width: 2px; stroke: rgb(74, 144, 226); stroke-opacity: 0.8;"/><path d=" M226.00, 217.00 L226.00, 216.50 L226.00, 216.00 L226.00, 215.50 L226.00, 215.00 L226.00, 214.49 L226.00, 213.99 L226.00, 213.49 L226.00, 212.99 L226.00, 212.49 L226.00, 211.99 L226.00, 211.49 L226.00, 210.99 L226.00, 210.48 L226.00, 209.98 L226.00, 209.48 L226.00, 208.98 L226.00, 208.48 L226.00, 207.98 L226.00, 207.48 L226.00, 206.98 L226.00, 206.48 L226.00, 205.97 L226.00, 205.47 L226.00, 204.97 L226.00, 204.47 L226.00, 203.97 L226.00, 203.47 L226.00, 202.97 L226.00, 202.47 L226.00, 201.97 L226.00, 201.46 L226.00, 200.96 L226.00, 200.46 L226.00, 199.96 L226.00, 199.46 L226.00, 198.96 L226.00, 198.46 L226.00, 197.96 L226.00, 197.45 L226.00, 196.95 L226.00, 196.45 L226.00, 195.95 L226.00, 195.45 L226.00, 194.95 L226.00, 194.45 L226.00, 193.95 L226.00, 193.45 L226.00, 192.94 L226.00, 192.44 L226.00, 191.94 L226.00, 191.44 L226.00, 190.94 L226.00, 190.44 L226.00, 189.94 L226.00, 189.44 L226.00, 188.94 L226.00, 188.43 L226.00, 187.93 L226.00, 187.43 L226.00, 186.93 L226.00, 186.43 L226.00, 185.93 L226.00, 185.43 L226.00, 184.93 L226.00, 184.42 L226.00, 183.92 L226.00, 183.42 L226.00, 182.92 L226.00, 182.42 L226.00, 181.92 L226.00, 181.42 L226.00, 180.92 L226.00, 180.42 L226.00, 179.91 L226.00, 179.41 L226.00, 178.91 L226.00, 178.41 L226.00, 177.91 L226.00, 177.41 L226.00, 176.91 L226.00, 176.41 L226.00, 175.91 L226.00, 175.40 L226.00, 174.90 L226.00, 174.40 L226.00, 173.90 L226.00, 173.40 L226.00, 172.90 L226.00, 172.40 L226.00, 171.90 L226.00, 171.39 L226.00, 170.89 L226.00, 170.39 L226.00, 169.89 L226.00, 169.39 L226.00, 168.89 L226.00, 168.39 L226.00, 167.89 L226.00, 167.39 L226.00, 166.88 L226.00, 166.38 L226.00, 165.88 L226.00, 165.38 L226.00, 164.88 L226.00, 164.38 L226.00, 163.88 L226.00, 163.38 L226.00, 162.88 L226.00, 162.37 L226.00, 161.87 L226.00, 161.37 L226.00, 160.87 L226.00, 160.37 L226.00, 159.87 L226.00, 159.37 L226.00, 158.87 L226.00, 158.36 L226.00, 157.86 L226.00, 157.36 L226.00, 156.86 L226.00, 156.36 L226.00, 155.86 L226.00, 155.36 L226.00, 154.86 L226.00, 154.36 L226.00, 153.85 L226.00, 153.35 L226.00, 152.85 L226.00, 152.35 L226.00, 151.85 L226.00, 151.35 L226.00, 150.85 L226.00, 150.35 L226.00, 149.85 L226.00, 149.34 L226.00, 148.84 L226.00, 148.34 L226.00, 147.84 L226.00, 147.34 L226.00, 146.84 L226.00, 146.34 L226.00, 145.84 L226.00, 145.33 L226.00, 144.83 L226.00, 144.33 L226.00, 143.83 L226.00, 143.33 L226.00, 142.83 L226.00, 142.33 L226.00, 141.83 L226.00, 141.33 L226.00, 140.82 L226.00, 140.32 L226.00, 139.82 L226.00, 139.32 L226.00, 138.82 L226.00, 138.32 L226.00, 137.82 L226.00, 137.32 L226.00, 136.82 L226.00, 136.31 L226.00, 135.81 L226.00, 135.31 L226.00, 134.81 L226.00, 134.31 L226.00, 133.81 L226.00, 133.31 L226.00, 132.81 L226.00, 132.30 L226.00, 131.80 L226.00, 131.30 L226.00, 130.80 L226.00, 130.30 L226.00, 129.80 L226.00, 129.30 L226.00, 128.80 L226.00, 128.30 L226.00, 127.79 L226.00, 127.29 L226.00, 126.79 L226.00, 126.29 L226.00, 125.79 L226.00, 125.29 L226.00, 124.79 L226.00, 124.29 L226.00, 123.79 L226.00, 123.28 L226.00, 122.78 L226.00, 122.28 L226.00, 121.78 L226.00, 121.28 L226.00, 120.78 L226.00, 120.28 L226.00, 119.78 L226.00, 119.27 L226.00, 118.77 L226.00, 118.27 L226.00, 117.77 L226.00, 117.27 L226.00, 116.77 L226.00, 116.27 L226.00, 115.77 L226.00, 115.27 L226.00, 114.76 L226.00, 114.26 L226.00, 113.76 L226.00, 113.26 L226.00, 112.76 L226.00, 112.26 L226.00, 111.76 L226.00, 111.26 L226.00, 110.76 L226.00, 110.25 L226.00, 109.75 L226.00, 109.25 L226.00, 108.75 L226.00, 108.25 L226.00, 107.75 L226.00, 107.25 L226.00, 106.75 L226.00, 106.24 L226.00, 105.74 L226.00, 105.24 L226.00, 104.74 L226.00, 104.24 L226.00, 103.74 L226.00, 103.24 L226.00, 102.74 L226.00, 102.24 L226.00, 101.73 L226.00, 101.23 L226.00, 100.73 L226.00, 100.23 L226.00, 99.73 L226.00, 99.23 L226.00, 98.73 L226.00, 98.23 L226.00, 97.73 L226.00, 97.22 L226.00, 96.72 L226.00, 96.22 L226.00, 95.72 L226.00, 95.22 L226.00, 94.72 L226.00, 94.22 L226.00, 93.72 L226.00, 93.21 L226.00, 92.71 L226.00, 92.21 L226.00, 91.71 L226.00, 91.21 L226.00, 90.71 L226.00, 90.21 L226.00, 89.71 L226.00, 89.21 L226.00, 88.70 L226.00, 88.20 L226.00, 87.70 L226.00, 87.20 L226.00, 86.70 L226.00, 86.20 L226.00, 85.70 L226.00, 85.20 L226.00, 84.70 L226.00, 84.19 L226.00, 83.69 L226.00, 83.19 L226.00, 82.69 L226.00, 82.19 L226.00, 81.69 L226.00, 81.19 L226.00, 80.69 L226.00, 80.18 L226.00, 79.68 L226.00, 79.18 L226.00, 78.68 L226.00, 78.18 L226.00, 77.68 L226.00, 77.18 L226.00, 76.68 L226.00, 76.18 L226.00, 75.67 L226.00, 75.17 L226.00, 74.67 L226.00, 74.17 L226.00, 73.67 L226.00, 73.17 L226.00, 72.67 L226.00, 72.17 L226.00, 71.67 L226.00, 71.16 L226.00, 70.66 L226.00, 70.16 L226.00, 69.66 L226.00, 69.16 L226.00, 68.66 L226.00, 68.16 L226.00, 67.66 L226.00, 67.15 L226.00, 66.65 L226.00, 66.15 L226.00, 65.65 L226.00, 65.15 L226.00, 64.65 L226.00, 64.15 L226.00, 63.65 L226.00, 63.15 L226.00, 62.64 L226.00, 62.14 L226.00, 61.64 L226.00, 61.14 L226.00, 60.64 L226.00, 60.14 L226.00, 59.64 L226.00, 59.14 L226.00, 58.64 L226.00, 58.13 L226.00, 57.63 L226.00, 57.13 L226.00, 56.63 L226.00, 56.13 L226.00, 55.63 L226.00, 55.13 L226.00, 54.63 L226.00, 54.12 L226.00, 53.62 L226.00, 53.12 L226.00, 52.62 L226.00, 52.12 L226.00, 51.62 L226.00, 51.12 L226.00, 50.62 L226.00, 50.12 L226.00, 49.61 L226.00, 49.11 L226.00, 48.61 L226.00, 48.11 L226.00, 47.61 L226.00, 47.11 L226.00, 46.61 L226.00, 46.11 L226.00, 45.61 L226.00, 45.10 L226.00, 44.60 L226.00, 44.10 L226.00, 43.60 L226.00, 43.10 L226.00, 42.60 L226.00, 42.10 L226.00, 41.60 L226.00, 41.09 L226.00, 40.59 L226.00, 40.09 L226.00, 39.59 L226.00, 39.09 L226.00, 38.59 L226.00, 38.09 L226.00, 37.59 L226.00, 37.09 L226.00, 36.58 L226.00, 36.08 L226.00, 35.58 L226.00, 35.08 L226.00, 34.58 L226.00, 34.08 L226.00, 33.58 L226.00, 33.08 L226.00, 32.58 L226.00, 32.07 L226.00, 31.57 L226.00, 31.07 L226.00, 30.57 L226.00, 30.07 L226.00, 29.57 L226.00, 29.07 L226.00, 28.57 L226.00, 28.06 L226.00, 27.56 L226.00, 27.06 L226.00, 26.56 L226.00, 26.06 L226.00, 25.56 L226.00, 25.06 L226.00, 24.56 L226.00, 24.06 L226.00, 23.55 L226.00, 23.05 L226.00, 22.55 L226.00, 22.05 L226.00, 21.55 L226.00, 21.05 L226.00, 20.55 L226.00, 20.05 L226.00, 19.55 L226.00, 19.04 L226.00, 18.54 L226.00, 18.04 L226.00, 17.54 L226.00, 17.04 L226.00, 16.54 L226.00, 16.04 L226.00, 15.54 L226.00, 15.03 L226.00, 14.53 L226.00, 14.03 L226.00, 13.53 L226.00, 13.03 L226.00, 12.53 L226.00, 12.03 L226.00, 11.53 L226.00, 11.03 L226.00, 10.52 L226.00, 10.02 L226.00, 9.52 L226.00, 9.02 L226.00, 8.52 L226.00, 8.02 L226.00, 7.52 L226.00, 7.02 L226.00, 6.52 L226.00, 6.01 L226.00, 5.51 L226.00, 5.01 L226.00, 4.51 L226.00, 4.01 L226.00, 3.51 L226.00, 3.01 L226.00, 2.51 L226.00, 2.00 L226.00, 1.50 L226.00, 1.00 L226.00, 0.50 L226.00, 0.00" style="stroke-width: 2px; stroke: rgb(245, 49, 49); stroke-opacity: 0.8;"/></g></g><g class="test-xtl" style="font-family: &quot;Open Sans&quot;, verdana, arial, sans-serif;"><text text-anchor="middle" font-size="11" dominant-baseline="hanging" stroke="none" fill="rgb(50,50,50)" fill-opacity="1" x="1.8650000000000055" y="124">-15</text><text text-anchor="middle" font-size="11" dominant-baseline="hanging" stroke="none" fill="rgb(50,50,50)" fill-opacity="1" x="66.865" y="124">-10</text><text text-anchor="middle" font-size="11" dominant-baseline="hanging" stroke="none" fill="rgb(50,50,50)" fill-opacity="1" x="131.865" y="124">-5</text><text text-anchor="middle" font-size="11" dominant-baseline="hanging" stroke="none" fill="rgb(50,50,50)" fill-opacity="1" x="265" y="124">5</text><text text-anchor="middle" font-size="11" dominant-baseline="hanging" stroke="none" fill="rgb(50,50,50)" fill-opacity="1" x="330" y="124">10</text><text text-anchor="middle" font-size="11" dominant-baseline="hanging" stroke="none" fill="rgb(50,50,50)" fill-opacity="1" x="395" y="124">15</text><text text-anchor="middle" font-size="11" dominant-baseline="hanging" stroke="none" fill="rgb(50,50,50)" fill-opacity="1" x="192" y="122">0</text></g><g class="test-ytl" style="font-family: &quot;Open Sans&quot;, verdana, arial, sans-serif;"><text text-anchor="end" dominant-baseline="middle" font-size="11" stroke="none" fill="rgb(50,50,50)" fill-opacity="1" x="192" y="182">-5</text><text text-anchor="end" dominant-baseline="middle" font-size="11" stroke="none" fill="rgb(50,50,50)" fill-opacity="1" x="192" y="52">5</text></g><rect class="real" x="1" y="1" width="395" height="215" style="fill: transparent; stroke: none;"/></g></g></g><g class="arrow-line"><path class="connection real" stroke-dasharray="" d="  M275,200.5 L258,171.23" style="stroke: rgb(0, 0, 0); stroke-width: 1px; fill: none; fill-opacity: 1;"/><g stroke="#000" transform="matrix(0.5021146045279635,0.8648010892220978,-0.8648010892220978,0.5021146045279635,257,169.5)" style="stroke: rgb(0, 0, 0); stroke-width: 1px;"><path d=" M10.93,-3.29 Q4.96,-0.45 0,0 Q4.96,0.45 10.93,3.29"/></g></g><g/></g><g/><g/><g/></svg>
        <svg xmlns="http://www.w3.org/2000/svg" xmlns:xlink="http://www.w3.org/1999/xlink" width="577" height="296" style="width:577px;height:296px;font-family:Asana-Math, Asana;background:#FFF;"><g><g><g><g transform="matrix(1,0,0,1,302.5,99.60000610351562)"><path transform="matrix(0.017,0,0,-0.017,0,0)" d="M345 437L329 437L350 549C366 635 394 673 440 673C470 673 497 658 512 634L522 638C527 654 537 685 545 705L550 720C534 727 503 733 480 733C469 733 453 730 445 726C421 715 339 654 316 630C294 608 282 578 271 521L256 442C215 422 195 414 170 405L165 383L246 383L237 327C207 132 170 -54 148 -123C130 -182 100 -213 64 -213C41 -213 30 -206 12 -184L-2 -188C-6 -211 -20 -259 -25 -268C-16 -273 -1 -276 10 -276C51 -276 105 -245 144 -198C215 -114 235 -18 319 383L423 383C427 402 434 425 440 439L436 446C407 439 408 437 345 437Z" stroke="rgb(0,0,0)" stroke-opacity="1" stroke-width="8" fill="rgb(0,0,0)" fill-opacity="1"></path></g></g><g><g transform="matrix(1,0,0,1,311.8499755859375,99.39999389648438)"><path transform="matrix(0.017,0,0,-0.017,0,0)" d="M146 266C146 526 243 632 301 700L282 726C225 675 60 542 60 266C60 159 85 58 133 -32C168 -99 200 -138 282 -215L301 -194C255 -137 146 -15 146 266Z" stroke="rgb(0,0,0)" stroke-opacity="1" stroke-width="8" fill="rgb(0,0,0)" fill-opacity="1"></path></g></g><g><g transform="matrix(1,0,0,1,317.5,99.60000610351562)"><path transform="matrix(0.017,0,0,-0.017,0,0)" d="M9 1C24 -7 40 -11 52 -11C85 -11 124 18 155 65L231 182L242 113C255 28 278 -11 314 -11C336 -11 368 6 400 35L449 79L440 98C404 68 379 53 363 53C348 53 335 63 325 83C316 102 305 139 300 168L282 269L317 318C364 383 391 406 422 406C438 406 450 398 455 383L469 387L484 472C472 479 463 482 454 482C414 482 374 446 312 354L275 299L269 347C257 446 230 482 171 482C145 482 123 474 114 461L56 378L73 368C103 402 123 416 142 416C175 416 197 375 214 277L225 215L185 153C142 86 108 54 80 54C65 54 54 58 52 63L41 91L21 88C21 53 13 27 9 1Z" stroke="rgb(0,0,0)" stroke-opacity="1" stroke-width="8" fill="rgb(0,0,0)" fill-opacity="1"></path></g></g><g><g transform="matrix(1,0,0,1,325.98333740234375,99.39999389648438)"><path transform="matrix(0.017,0,0,-0.017,0,0)" d="M51 726L32 700C87 636 187 526 187 266C187 -10 83 -131 32 -194L51 -215C104 -165 273 -23 273 265C273 542 108 675 51 726Z" stroke="rgb(0,0,0)" stroke-opacity="1" stroke-width="8" fill="rgb(0,0,0)" fill-opacity="1"></path></g></g><g><g transform="matrix(1,0,0,1,336.73333740234375,99.60000610351562)"><path transform="matrix(0.017,0,0,-0.017,0,0)" d="M604 347L604 406L65 406L65 347ZM604 134L604 193L65 193L65 134Z" stroke="rgb(0,0,0)" stroke-opacity="1" stroke-width="8" fill="rgb(0,0,0)" fill-opacity="1"></path></g></g><g><g><g><g><g transform="matrix(1,0,0,1,367.66668701171875,87.20001220703125)"><path transform="matrix(0.017,0,0,-0.017,0,0)" d="M418 -3L418 27L366 30C311 33 301 44 301 96L301 700L60 598L67 548L217 614L217 96C217 44 206 33 152 30L96 27L96 -3C250 0 250 0 261 0C292 0 402 -3 418 -3Z" stroke="rgb(0,0,0)" stroke-opacity="1" stroke-width="8" fill="rgb(0,0,0)" fill-opacity="1"></path></g></g></g></g><g><g><g><g transform="matrix(1,0,0,1,354.88330078125,113)"><path transform="matrix(0.017,0,0,-0.017,0,0)" d="M9 1C24 -7 40 -11 52 -11C85 -11 124 18 155 65L231 182L242 113C255 28 278 -11 314 -11C336 -11 368 6 400 35L449 79L440 98C404 68 379 53 363 53C348 53 335 63 325 83C316 102 305 139 300 168L282 269L317 318C364 383 391 406 422 406C438 406 450 398 455 383L469 387L484 472C472 479 463 482 454 482C414 482 374 446 312 354L275 299L269 347C257 446 230 482 171 482C145 482 123 474 114 461L56 378L73 368C103 402 123 416 142 416C175 416 197 375 214 277L225 215L185 153C142 86 108 54 80 54C65 54 54 58 52 63L41 91L21 88C21 53 13 27 9 1Z" stroke="rgb(0,0,0)" stroke-opacity="1" stroke-width="8" fill="rgb(0,0,0)" fill-opacity="1"></path></g></g><g><g transform="matrix(1,0,0,1,366.76666259765625,113)"><path transform="matrix(0.017,0,0,-0.017,0,0)" d="M555 243L555 299L51 299L51 243Z" stroke="rgb(0,0,0)" stroke-opacity="1" stroke-width="8" fill="rgb(0,0,0)" fill-opacity="1"></path></g></g><g><g transform="matrix(1,0,0,1,380.45001220703125,113)"><path transform="matrix(0.017,0,0,-0.017,0,0)" d="M16 23L16 -3C203 -3 203 0 239 0C275 0 275 -3 468 -3L468 82C353 77 307 81 122 77L304 270C401 373 431 428 431 503C431 618 353 689 226 689C154 689 105 669 56 619L39 483L68 483L81 529C97 587 133 612 200 612C286 612 341 558 341 473C341 398 299 324 186 204Z" stroke="rgb(0,0,0)" stroke-opacity="1" stroke-width="8" fill="rgb(0,0,0)" fill-opacity="1"></path></g></g></g></g><line style="fill:none;stroke-width:1px;stroke:rgb(0, 0, 0);" x1="354.88330078125" y1="95.35000610351562" x2="388.9333038330078" y2="95.35000610351562"></line></g></g></g><g><g><g><text x="270.5" y="202.5" style="white-space:pre;stroke:none;fill:rgb(0,0,0);fill-opacity:1;font-size:15px;font-family:Arial, Helvetica, sans-serif;font-weight:400;font-style:normal;dominant-baseline:text-before-edge;text-decoration:rgb(0, 0, 0);">asymptote</text></g></g></g></svg>
</svg>
